<?xml version="1.0" encoding="utf-8"?>
<svg xmlns="http://www.w3.org/2000/svg" xmlns:xlink="http://www.w3.org/1999/xlink" width="600" height="400" viewBox="0 0 2400 1600">
<defs>
  <clipPath id="clip910">
    <rect x="0" y="0" width="2400" height="1600"/>
  </clipPath>
</defs>
<path clip-path="url(#clip910)" d="M0 1600 L2400 1600 L2400 0 L0 0  Z" fill="#ffffff" fill-rule="evenodd" fill-opacity="1"/>
<defs>
  <clipPath id="clip911">
    <rect x="480" y="0" width="1681" height="1600"/>
  </clipPath>
</defs>
<path clip-path="url(#clip910)" d="M371.956 1423.18 L2191.55 1423.18 L2191.55 123.472 L371.956 123.472  Z" fill="#ffffff" fill-rule="evenodd" fill-opacity="1"/>
<defs>
  <clipPath id="clip912">
    <rect x="371" y="123" width="1821" height="1301"/>
  </clipPath>
</defs>
<polyline clip-path="url(#clip912)" style="stroke:#000000; stroke-linecap:round; stroke-linejoin:round; stroke-width:2; stroke-opacity:0.1; fill:none" points="501.926,1423.18 501.926,123.472 "/>
<polyline clip-path="url(#clip912)" style="stroke:#000000; stroke-linecap:round; stroke-linejoin:round; stroke-width:2; stroke-opacity:0.1; fill:none" points="761.868,1423.18 761.868,123.472 "/>
<polyline clip-path="url(#clip912)" style="stroke:#000000; stroke-linecap:round; stroke-linejoin:round; stroke-width:2; stroke-opacity:0.1; fill:none" points="1021.81,1423.18 1021.81,123.472 "/>
<polyline clip-path="url(#clip912)" style="stroke:#000000; stroke-linecap:round; stroke-linejoin:round; stroke-width:2; stroke-opacity:0.1; fill:none" points="1281.75,1423.18 1281.75,123.472 "/>
<polyline clip-path="url(#clip912)" style="stroke:#000000; stroke-linecap:round; stroke-linejoin:round; stroke-width:2; stroke-opacity:0.1; fill:none" points="1541.69,1423.18 1541.69,123.472 "/>
<polyline clip-path="url(#clip912)" style="stroke:#000000; stroke-linecap:round; stroke-linejoin:round; stroke-width:2; stroke-opacity:0.1; fill:none" points="1801.63,1423.18 1801.63,123.472 "/>
<polyline clip-path="url(#clip912)" style="stroke:#000000; stroke-linecap:round; stroke-linejoin:round; stroke-width:2; stroke-opacity:0.1; fill:none" points="2061.58,1423.18 2061.58,123.472 "/>
<polyline clip-path="url(#clip910)" style="stroke:#000000; stroke-linecap:round; stroke-linejoin:round; stroke-width:4; stroke-opacity:1; fill:none" points="371.956,1423.18 2191.55,1423.18 "/>
<polyline clip-path="url(#clip910)" style="stroke:#000000; stroke-linecap:round; stroke-linejoin:round; stroke-width:4; stroke-opacity:1; fill:none" points="501.926,1423.18 501.926,1404.28 "/>
<polyline clip-path="url(#clip910)" style="stroke:#000000; stroke-linecap:round; stroke-linejoin:round; stroke-width:4; stroke-opacity:1; fill:none" points="761.868,1423.18 761.868,1404.28 "/>
<polyline clip-path="url(#clip910)" style="stroke:#000000; stroke-linecap:round; stroke-linejoin:round; stroke-width:4; stroke-opacity:1; fill:none" points="1021.81,1423.18 1021.81,1404.28 "/>
<polyline clip-path="url(#clip910)" style="stroke:#000000; stroke-linecap:round; stroke-linejoin:round; stroke-width:4; stroke-opacity:1; fill:none" points="1281.75,1423.18 1281.75,1404.28 "/>
<polyline clip-path="url(#clip910)" style="stroke:#000000; stroke-linecap:round; stroke-linejoin:round; stroke-width:4; stroke-opacity:1; fill:none" points="1541.69,1423.18 1541.69,1404.28 "/>
<polyline clip-path="url(#clip910)" style="stroke:#000000; stroke-linecap:round; stroke-linejoin:round; stroke-width:4; stroke-opacity:1; fill:none" points="1801.63,1423.18 1801.63,1404.28 "/>
<polyline clip-path="url(#clip910)" style="stroke:#000000; stroke-linecap:round; stroke-linejoin:round; stroke-width:4; stroke-opacity:1; fill:none" points="2061.58,1423.18 2061.58,1404.28 "/>
<path clip-path="url(#clip910)" d="M471.394 1468.75 L501.07 1468.75 L501.07 1472.69 L471.394 1472.69 L471.394 1468.75 Z" fill="#000000" fill-rule="nonzero" fill-opacity="1" /><path clip-path="url(#clip910)" d="M525.329 1466.95 Q528.685 1467.66 530.56 1469.93 Q532.459 1472.2 532.459 1475.53 Q532.459 1480.65 528.94 1483.45 Q525.422 1486.25 518.94 1486.25 Q516.764 1486.25 514.449 1485.81 Q512.158 1485.39 509.704 1484.54 L509.704 1480.02 Q511.648 1481.16 513.963 1481.74 Q516.278 1482.32 518.801 1482.32 Q523.199 1482.32 525.491 1480.58 Q527.806 1478.84 527.806 1475.53 Q527.806 1472.48 525.653 1470.77 Q523.523 1469.03 519.704 1469.03 L515.676 1469.03 L515.676 1465.19 L519.889 1465.19 Q523.338 1465.19 525.167 1463.82 Q526.996 1462.43 526.996 1459.84 Q526.996 1457.18 525.097 1455.77 Q523.222 1454.33 519.704 1454.33 Q517.783 1454.33 515.584 1454.75 Q513.385 1455.16 510.746 1456.04 L510.746 1451.88 Q513.408 1451.14 515.723 1450.77 Q518.06 1450.39 520.121 1450.39 Q525.445 1450.39 528.547 1452.83 Q531.648 1455.23 531.648 1459.35 Q531.648 1462.22 530.005 1464.21 Q528.361 1466.18 525.329 1466.95 Z" fill="#000000" fill-rule="nonzero" fill-opacity="1" /><path clip-path="url(#clip910)" d="M731.81 1468.75 L761.486 1468.75 L761.486 1472.69 L731.81 1472.69 L731.81 1468.75 Z" fill="#000000" fill-rule="nonzero" fill-opacity="1" /><path clip-path="url(#clip910)" d="M775.606 1481.64 L791.926 1481.64 L791.926 1485.58 L769.981 1485.58 L769.981 1481.64 Q772.643 1478.89 777.227 1474.26 Q781.833 1469.61 783.014 1468.27 Q785.259 1465.74 786.139 1464.01 Q787.041 1462.25 787.041 1460.56 Q787.041 1457.8 785.097 1456.07 Q783.176 1454.33 780.074 1454.33 Q777.875 1454.33 775.421 1455.09 Q772.99 1455.86 770.213 1457.41 L770.213 1452.69 Q773.037 1451.55 775.49 1450.97 Q777.944 1450.39 779.981 1450.39 Q785.352 1450.39 788.546 1453.08 Q791.74 1455.77 791.74 1460.26 Q791.74 1462.39 790.93 1464.31 Q790.143 1466.2 788.037 1468.8 Q787.458 1469.47 784.356 1472.69 Q781.254 1475.88 775.606 1481.64 Z" fill="#000000" fill-rule="nonzero" fill-opacity="1" /><path clip-path="url(#clip910)" d="M991.566 1468.75 L1021.24 1468.75 L1021.24 1472.69 L991.566 1472.69 L991.566 1468.75 Z" fill="#000000" fill-rule="nonzero" fill-opacity="1" /><path clip-path="url(#clip910)" d="M1032.14 1481.64 L1039.78 1481.64 L1039.78 1455.28 L1031.47 1456.95 L1031.47 1452.69 L1039.74 1451.02 L1044.41 1451.02 L1044.41 1481.64 L1052.05 1481.64 L1052.05 1485.58 L1032.14 1485.58 L1032.14 1481.64 Z" fill="#000000" fill-rule="nonzero" fill-opacity="1" /><path clip-path="url(#clip910)" d="M1281.75 1454.1 Q1278.14 1454.1 1276.31 1457.66 Q1274.51 1461.2 1274.51 1468.33 Q1274.51 1475.44 1276.31 1479.01 Q1278.14 1482.55 1281.75 1482.55 Q1285.39 1482.55 1287.19 1479.01 Q1289.02 1475.44 1289.02 1468.33 Q1289.02 1461.2 1287.19 1457.66 Q1285.39 1454.1 1281.75 1454.1 M1281.75 1450.39 Q1287.56 1450.39 1290.62 1455 Q1293.7 1459.58 1293.7 1468.33 Q1293.7 1477.06 1290.62 1481.67 Q1287.56 1486.25 1281.75 1486.25 Q1275.94 1486.25 1272.86 1481.67 Q1269.81 1477.06 1269.81 1468.33 Q1269.81 1459.58 1272.86 1455 Q1275.94 1450.39 1281.75 1450.39 Z" fill="#000000" fill-rule="nonzero" fill-opacity="1" /><path clip-path="url(#clip910)" d="M1532.07 1481.64 L1539.71 1481.64 L1539.71 1455.28 L1531.4 1456.95 L1531.4 1452.69 L1539.67 1451.02 L1544.34 1451.02 L1544.34 1481.64 L1551.98 1481.64 L1551.98 1485.58 L1532.07 1485.58 L1532.07 1481.64 Z" fill="#000000" fill-rule="nonzero" fill-opacity="1" /><path clip-path="url(#clip910)" d="M1796.29 1481.64 L1812.61 1481.64 L1812.61 1485.58 L1790.66 1485.58 L1790.66 1481.64 Q1793.32 1478.89 1797.91 1474.26 Q1802.51 1469.61 1803.69 1468.27 Q1805.94 1465.74 1806.82 1464.01 Q1807.72 1462.25 1807.72 1460.56 Q1807.72 1457.8 1805.78 1456.07 Q1803.86 1454.33 1800.75 1454.33 Q1798.56 1454.33 1796.1 1455.09 Q1793.67 1455.86 1790.89 1457.41 L1790.89 1452.69 Q1793.72 1451.55 1796.17 1450.97 Q1798.62 1450.39 1800.66 1450.39 Q1806.03 1450.39 1809.23 1453.08 Q1812.42 1455.77 1812.42 1460.26 Q1812.42 1462.39 1811.61 1464.31 Q1810.82 1466.2 1808.72 1468.8 Q1808.14 1469.47 1805.04 1472.69 Q1801.93 1475.88 1796.29 1481.64 Z" fill="#000000" fill-rule="nonzero" fill-opacity="1" /><path clip-path="url(#clip910)" d="M2065.82 1466.95 Q2069.18 1467.66 2071.05 1469.93 Q2072.95 1472.2 2072.95 1475.53 Q2072.95 1480.65 2069.43 1483.45 Q2065.92 1486.25 2059.43 1486.25 Q2057.26 1486.25 2054.94 1485.81 Q2052.65 1485.39 2050.2 1484.54 L2050.2 1480.02 Q2052.14 1481.16 2054.46 1481.74 Q2056.77 1482.32 2059.3 1482.32 Q2063.69 1482.32 2065.99 1480.58 Q2068.3 1478.84 2068.3 1475.53 Q2068.3 1472.48 2066.15 1470.77 Q2064.02 1469.03 2060.2 1469.03 L2056.17 1469.03 L2056.17 1465.19 L2060.38 1465.19 Q2063.83 1465.19 2065.66 1463.82 Q2067.49 1462.43 2067.49 1459.84 Q2067.49 1457.18 2065.59 1455.77 Q2063.72 1454.33 2060.2 1454.33 Q2058.28 1454.33 2056.08 1454.75 Q2053.88 1455.16 2051.24 1456.04 L2051.24 1451.88 Q2053.9 1451.14 2056.22 1450.77 Q2058.55 1450.39 2060.61 1450.39 Q2065.94 1450.39 2069.04 1452.83 Q2072.14 1455.23 2072.14 1459.35 Q2072.14 1462.22 2070.5 1464.21 Q2068.86 1466.18 2065.82 1466.95 Z" fill="#000000" fill-rule="nonzero" fill-opacity="1" /><path clip-path="url(#clip910)" d="M1298.37 1532.4 L1285.47 1549.74 L1299.03 1568.04 L1292.13 1568.04 L1281.75 1554.04 L1271.37 1568.04 L1264.47 1568.04 L1278.31 1549.39 L1265.65 1532.4 L1272.55 1532.4 L1282.01 1545.1 L1291.46 1532.4 L1298.37 1532.4 Z" fill="#000000" fill-rule="nonzero" fill-opacity="1" /><polyline clip-path="url(#clip912)" style="stroke:#000000; stroke-linecap:round; stroke-linejoin:round; stroke-width:2; stroke-opacity:0.1; fill:none" points="371.956,1293.21 2191.55,1293.21 "/>
<polyline clip-path="url(#clip912)" style="stroke:#000000; stroke-linecap:round; stroke-linejoin:round; stroke-width:2; stroke-opacity:0.1; fill:none" points="371.956,1033.27 2191.55,1033.27 "/>
<polyline clip-path="url(#clip912)" style="stroke:#000000; stroke-linecap:round; stroke-linejoin:round; stroke-width:2; stroke-opacity:0.1; fill:none" points="371.956,773.326 2191.55,773.326 "/>
<polyline clip-path="url(#clip912)" style="stroke:#000000; stroke-linecap:round; stroke-linejoin:round; stroke-width:2; stroke-opacity:0.1; fill:none" points="371.956,513.384 2191.55,513.384 "/>
<polyline clip-path="url(#clip912)" style="stroke:#000000; stroke-linecap:round; stroke-linejoin:round; stroke-width:2; stroke-opacity:0.1; fill:none" points="371.956,253.443 2191.55,253.443 "/>
<polyline clip-path="url(#clip910)" style="stroke:#000000; stroke-linecap:round; stroke-linejoin:round; stroke-width:4; stroke-opacity:1; fill:none" points="371.956,1423.18 371.956,123.472 "/>
<polyline clip-path="url(#clip910)" style="stroke:#000000; stroke-linecap:round; stroke-linejoin:round; stroke-width:4; stroke-opacity:1; fill:none" points="371.956,1293.21 388.009,1293.21 "/>
<polyline clip-path="url(#clip910)" style="stroke:#000000; stroke-linecap:round; stroke-linejoin:round; stroke-width:4; stroke-opacity:1; fill:none" points="371.956,1033.27 388.009,1033.27 "/>
<polyline clip-path="url(#clip910)" style="stroke:#000000; stroke-linecap:round; stroke-linejoin:round; stroke-width:4; stroke-opacity:1; fill:none" points="371.956,773.326 388.009,773.326 "/>
<polyline clip-path="url(#clip910)" style="stroke:#000000; stroke-linecap:round; stroke-linejoin:round; stroke-width:4; stroke-opacity:1; fill:none" points="371.956,513.384 388.009,513.384 "/>
<polyline clip-path="url(#clip910)" style="stroke:#000000; stroke-linecap:round; stroke-linejoin:round; stroke-width:4; stroke-opacity:1; fill:none" points="371.956,253.443 388.009,253.443 "/>
<path clip-path="url(#clip910)" d="M275.84 1293.66 L305.516 1293.66 L305.516 1297.6 L275.84 1297.6 L275.84 1293.66 Z" fill="#000000" fill-rule="nonzero" fill-opacity="1" /><path clip-path="url(#clip910)" d="M319.636 1306.55 L335.956 1306.55 L335.956 1310.49 L314.011 1310.49 L314.011 1306.55 Q316.673 1303.8 321.257 1299.17 Q325.863 1294.52 327.044 1293.17 Q329.289 1290.65 330.169 1288.92 Q331.071 1287.16 331.071 1285.47 Q331.071 1282.71 329.127 1280.98 Q327.206 1279.24 324.104 1279.24 Q321.905 1279.24 319.451 1280 Q317.02 1280.77 314.243 1282.32 L314.243 1277.6 Q317.067 1276.46 319.52 1275.88 Q321.974 1275.3 324.011 1275.3 Q329.381 1275.3 332.576 1277.99 Q335.77 1280.67 335.77 1285.17 Q335.77 1287.29 334.96 1289.22 Q334.173 1291.11 332.067 1293.71 Q331.488 1294.38 328.386 1297.6 Q325.284 1300.79 319.636 1306.55 Z" fill="#000000" fill-rule="nonzero" fill-opacity="1" /><path clip-path="url(#clip910)" d="M275.47 1033.72 L305.146 1033.72 L305.146 1037.65 L275.47 1037.65 L275.47 1033.72 Z" fill="#000000" fill-rule="nonzero" fill-opacity="1" /><path clip-path="url(#clip910)" d="M316.048 1046.61 L323.687 1046.61 L323.687 1020.25 L315.377 1021.91 L315.377 1017.65 L323.641 1015.99 L328.317 1015.99 L328.317 1046.61 L335.956 1046.61 L335.956 1050.55 L316.048 1050.55 L316.048 1046.61 Z" fill="#000000" fill-rule="nonzero" fill-opacity="1" /><path clip-path="url(#clip910)" d="M324.011 759.125 Q320.4 759.125 318.571 762.689 Q316.766 766.231 316.766 773.361 Q316.766 780.467 318.571 784.032 Q320.4 787.574 324.011 787.574 Q327.645 787.574 329.451 784.032 Q331.28 780.467 331.28 773.361 Q331.28 766.231 329.451 762.689 Q327.645 759.125 324.011 759.125 M324.011 755.421 Q329.821 755.421 332.877 760.027 Q335.956 764.611 335.956 773.361 Q335.956 782.088 332.877 786.694 Q329.821 791.277 324.011 791.277 Q318.201 791.277 315.122 786.694 Q312.067 782.088 312.067 773.361 Q312.067 764.611 315.122 760.027 Q318.201 755.421 324.011 755.421 Z" fill="#000000" fill-rule="nonzero" fill-opacity="1" /><path clip-path="url(#clip910)" d="M316.048 526.729 L323.687 526.729 L323.687 500.364 L315.377 502.03 L315.377 497.771 L323.641 496.104 L328.317 496.104 L328.317 526.729 L335.956 526.729 L335.956 530.664 L316.048 530.664 L316.048 526.729 Z" fill="#000000" fill-rule="nonzero" fill-opacity="1" /><path clip-path="url(#clip910)" d="M319.636 266.788 L335.956 266.788 L335.956 270.723 L314.011 270.723 L314.011 266.788 Q316.673 264.033 321.257 259.404 Q325.863 254.751 327.044 253.408 Q329.289 250.885 330.169 249.149 Q331.071 247.39 331.071 245.7 Q331.071 242.945 329.127 241.209 Q327.206 239.473 324.104 239.473 Q321.905 239.473 319.451 240.237 Q317.02 241.001 314.243 242.552 L314.243 237.83 Q317.067 236.695 319.52 236.117 Q321.974 235.538 324.011 235.538 Q329.381 235.538 332.576 238.223 Q335.77 240.908 335.77 245.399 Q335.77 247.529 334.96 249.45 Q334.173 251.348 332.067 253.941 Q331.488 254.612 328.386 257.829 Q325.284 261.024 319.636 266.788 Z" fill="#000000" fill-rule="nonzero" fill-opacity="1" /><path clip-path="url(#clip910)" d="M189.566 756.711 L206.912 769.602 L225.214 756.043 L225.214 762.95 L211.209 773.326 L225.214 783.702 L225.214 790.609 L206.562 776.763 L189.566 789.431 L189.566 782.524 L202.265 773.071 L189.566 763.618 L189.566 756.711 Z" fill="#000000" fill-rule="nonzero" fill-opacity="1" /><path clip-path="url(#clip910)" d="M848.811 12.096 L861.004 12.096 L876.438 53.2532 L891.953 12.096 L904.146 12.096 L904.146 72.576 L896.166 72.576 L896.166 19.4686 L880.57 60.9499 L872.346 60.9499 L856.75 19.4686 L856.75 72.576 L848.811 72.576 L848.811 12.096 Z" fill="#000000" fill-rule="nonzero" fill-opacity="1" /><path clip-path="url(#clip910)" d="M937.647 32.4315 Q931.652 32.4315 928.168 37.1306 Q924.684 41.7891 924.684 49.9314 Q924.684 58.0738 928.127 62.7728 Q931.611 67.4314 937.647 67.4314 Q943.602 67.4314 947.085 62.7323 Q950.569 58.0333 950.569 49.9314 Q950.569 41.8701 947.085 37.1711 Q943.602 32.4315 937.647 32.4315 M937.647 26.1121 Q947.369 26.1121 952.919 32.4315 Q958.469 38.7509 958.469 49.9314 Q958.469 61.0714 952.919 67.4314 Q947.369 73.7508 937.647 73.7508 Q927.884 73.7508 922.334 67.4314 Q916.825 61.0714 916.825 49.9314 Q916.825 38.7509 922.334 32.4315 Q927.884 26.1121 937.647 26.1121 Z" fill="#000000" fill-rule="nonzero" fill-opacity="1" /><path clip-path="url(#clip910)" d="M970.824 27.2059 L978.277 27.2059 L978.277 73.3862 Q978.277 82.0551 974.956 85.944 Q971.674 89.8329 964.342 89.8329 L961.507 89.8329 L961.507 83.5134 L963.492 83.5134 Q967.745 83.5134 969.284 81.5285 Q970.824 79.5841 970.824 73.3862 L970.824 27.2059 M970.824 9.54393 L978.277 9.54393 L978.277 18.9825 L970.824 18.9825 L970.824 9.54393 Z" fill="#000000" fill-rule="nonzero" fill-opacity="1" /><path clip-path="url(#clip910)" d="M1032.68 48.0275 L1032.68 51.6733 L998.41 51.6733 Q998.897 59.3701 1003.03 63.421 Q1007.2 67.4314 1014.61 67.4314 Q1018.91 67.4314 1022.92 66.3781 Q1026.97 65.3249 1030.94 63.2184 L1030.94 70.267 Q1026.93 71.9684 1022.72 72.8596 Q1018.5 73.7508 1014.17 73.7508 Q1003.31 73.7508 996.952 67.4314 Q990.633 61.1119 990.633 50.3365 Q990.633 39.1965 996.628 32.6746 Q1002.66 26.1121 1012.87 26.1121 Q1022.03 26.1121 1027.33 32.0264 Q1032.68 37.9003 1032.68 48.0275 M1025.23 45.84 Q1025.15 39.7232 1021.78 36.0774 Q1018.46 32.4315 1012.95 32.4315 Q1006.71 32.4315 1002.95 35.9558 Q999.221 39.4801 998.653 45.8805 L1025.23 45.84 Z" fill="#000000" fill-rule="nonzero" fill-opacity="1" /><path clip-path="url(#clip910)" d="M1052.29 14.324 L1052.29 27.2059 L1067.64 27.2059 L1067.64 32.9987 L1052.29 32.9987 L1052.29 57.6282 Q1052.29 63.1779 1053.79 64.7578 Q1055.33 66.3376 1059.98 66.3376 L1067.64 66.3376 L1067.64 72.576 L1059.98 72.576 Q1051.36 72.576 1048.07 69.3758 Q1044.79 66.1351 1044.79 57.6282 L1044.79 32.9987 L1039.32 32.9987 L1039.32 27.2059 L1044.79 27.2059 L1044.79 14.324 L1052.29 14.324 Z" fill="#000000" fill-rule="nonzero" fill-opacity="1" /><path clip-path="url(#clip910)" d="M1084.82 14.324 L1084.82 27.2059 L1100.17 27.2059 L1100.17 32.9987 L1084.82 32.9987 L1084.82 57.6282 Q1084.82 63.1779 1086.32 64.7578 Q1087.85 66.3376 1092.51 66.3376 L1100.17 66.3376 L1100.17 72.576 L1092.51 72.576 Q1083.88 72.576 1080.6 69.3758 Q1077.32 66.1351 1077.32 57.6282 L1077.32 32.9987 L1071.85 32.9987 L1071.85 27.2059 L1077.32 27.2059 L1077.32 14.324 L1084.82 14.324 Z" fill="#000000" fill-rule="nonzero" fill-opacity="1" /><path clip-path="url(#clip910)" d="M1148.78 48.0275 L1148.78 51.6733 L1114.51 51.6733 Q1115 59.3701 1119.13 63.421 Q1123.3 67.4314 1130.71 67.4314 Q1135.01 67.4314 1139.02 66.3781 Q1143.07 65.3249 1147.04 63.2184 L1147.04 70.267 Q1143.03 71.9684 1138.81 72.8596 Q1134.6 73.7508 1130.27 73.7508 Q1119.41 73.7508 1113.05 67.4314 Q1106.73 61.1119 1106.73 50.3365 Q1106.73 39.1965 1112.73 32.6746 Q1118.76 26.1121 1128.97 26.1121 Q1138.13 26.1121 1143.43 32.0264 Q1148.78 37.9003 1148.78 48.0275 M1141.33 45.84 Q1141.25 39.7232 1137.88 36.0774 Q1134.56 32.4315 1129.05 32.4315 Q1122.81 32.4315 1119.05 35.9558 Q1115.32 39.4801 1114.75 45.8805 L1141.33 45.84 Z" fill="#000000" fill-rule="nonzero" fill-opacity="1" /><path clip-path="url(#clip910)" d="M1187.39 9.54393 L1194.84 9.54393 L1194.84 72.576 L1187.39 72.576 L1187.39 9.54393 Z" fill="#000000" fill-rule="nonzero" fill-opacity="1" /><path clip-path="url(#clip910)" d="M1210.43 27.2059 L1217.89 27.2059 L1217.89 72.576 L1210.43 72.576 L1210.43 27.2059 M1210.43 9.54393 L1217.89 9.54393 L1217.89 18.9825 L1210.43 18.9825 L1210.43 9.54393 Z" fill="#000000" fill-rule="nonzero" fill-opacity="1" /><path clip-path="url(#clip910)" d="M1271.2 45.1919 L1271.2 72.576 L1263.74 72.576 L1263.74 45.4349 Q1263.74 38.994 1261.23 35.7938 Q1258.72 32.5936 1253.7 32.5936 Q1247.66 32.5936 1244.18 36.4419 Q1240.7 40.2903 1240.7 46.9338 L1240.7 72.576 L1233.2 72.576 L1233.2 27.2059 L1240.7 27.2059 L1240.7 34.2544 Q1243.37 30.163 1246.97 28.1376 Q1250.62 26.1121 1255.36 26.1121 Q1263.18 26.1121 1267.19 30.9732 Q1271.2 35.7938 1271.2 45.1919 Z" fill="#000000" fill-rule="nonzero" fill-opacity="1" /><path clip-path="url(#clip910)" d="M1324.87 48.0275 L1324.87 51.6733 L1290.6 51.6733 Q1291.09 59.3701 1295.22 63.421 Q1299.39 67.4314 1306.81 67.4314 Q1311.1 67.4314 1315.11 66.3781 Q1319.16 65.3249 1323.13 63.2184 L1323.13 70.267 Q1319.12 71.9684 1314.91 72.8596 Q1310.69 73.7508 1306.36 73.7508 Q1295.5 73.7508 1289.14 67.4314 Q1282.82 61.1119 1282.82 50.3365 Q1282.82 39.1965 1288.82 32.6746 Q1294.86 26.1121 1305.06 26.1121 Q1314.22 26.1121 1319.53 32.0264 Q1324.87 37.9003 1324.87 48.0275 M1317.42 45.84 Q1317.34 39.7232 1313.98 36.0774 Q1310.65 32.4315 1305.14 32.4315 Q1298.91 32.4315 1295.14 35.9558 Q1291.41 39.4801 1290.85 45.8805 L1317.42 45.84 Z" fill="#000000" fill-rule="nonzero" fill-opacity="1" /><path clip-path="url(#clip910)" d="M1363.48 27.2059 L1370.93 27.2059 L1370.93 72.576 L1363.48 72.576 L1363.48 27.2059 M1363.48 9.54393 L1370.93 9.54393 L1370.93 18.9825 L1363.48 18.9825 L1363.48 9.54393 Z" fill="#000000" fill-rule="nonzero" fill-opacity="1" /><path clip-path="url(#clip910)" d="M1424.24 45.1919 L1424.24 72.576 L1416.79 72.576 L1416.79 45.4349 Q1416.79 38.994 1414.28 35.7938 Q1411.76 32.5936 1406.74 32.5936 Q1400.71 32.5936 1397.22 36.4419 Q1393.74 40.2903 1393.74 46.9338 L1393.74 72.576 L1386.24 72.576 L1386.24 27.2059 L1393.74 27.2059 L1393.74 34.2544 Q1396.41 30.163 1400.02 28.1376 Q1403.66 26.1121 1408.4 26.1121 Q1416.22 26.1121 1420.23 30.9732 Q1424.24 35.7938 1424.24 45.1919 Z" fill="#000000" fill-rule="nonzero" fill-opacity="1" /><path clip-path="url(#clip910)" d="M1446.48 14.324 L1446.48 27.2059 L1461.83 27.2059 L1461.83 32.9987 L1446.48 32.9987 L1446.48 57.6282 Q1446.48 63.1779 1447.98 64.7578 Q1449.52 66.3376 1454.18 66.3376 L1461.83 66.3376 L1461.83 72.576 L1454.18 72.576 Q1445.55 72.576 1442.27 69.3758 Q1438.99 66.1351 1438.99 57.6282 L1438.99 32.9987 L1433.52 32.9987 L1433.52 27.2059 L1438.99 27.2059 L1438.99 14.324 L1446.48 14.324 Z" fill="#000000" fill-rule="nonzero" fill-opacity="1" /><path clip-path="url(#clip910)" d="M1510.44 48.0275 L1510.44 51.6733 L1476.17 51.6733 Q1476.66 59.3701 1480.79 63.421 Q1484.96 67.4314 1492.38 67.4314 Q1496.67 67.4314 1500.68 66.3781 Q1504.73 65.3249 1508.7 63.2184 L1508.7 70.267 Q1504.69 71.9684 1500.48 72.8596 Q1496.27 73.7508 1491.93 73.7508 Q1481.08 73.7508 1474.72 67.4314 Q1468.4 61.1119 1468.4 50.3365 Q1468.4 39.1965 1474.39 32.6746 Q1480.43 26.1121 1490.64 26.1121 Q1499.79 26.1121 1505.1 32.0264 Q1510.44 37.9003 1510.44 48.0275 M1502.99 45.84 Q1502.91 39.7232 1499.55 36.0774 Q1496.23 32.4315 1490.72 32.4315 Q1484.48 32.4315 1480.71 35.9558 Q1476.98 39.4801 1476.42 45.8805 L1502.99 45.84 Z" fill="#000000" fill-rule="nonzero" fill-opacity="1" /><path clip-path="url(#clip910)" d="M1552.53 49.3643 Q1552.53 41.2625 1549.17 36.8065 Q1545.85 32.3505 1539.81 32.3505 Q1533.82 32.3505 1530.46 36.8065 Q1527.13 41.2625 1527.13 49.3643 Q1527.13 57.4256 1530.46 61.8816 Q1533.82 66.3376 1539.81 66.3376 Q1545.85 66.3376 1549.17 61.8816 Q1552.53 57.4256 1552.53 49.3643 M1559.99 66.9452 Q1559.99 78.5308 1554.84 84.1616 Q1549.7 89.8329 1539.08 89.8329 Q1535.16 89.8329 1531.67 89.2252 Q1528.19 88.6581 1524.91 87.4428 L1524.91 80.1917 Q1528.19 81.9741 1531.39 82.8248 Q1534.59 83.6755 1537.91 83.6755 Q1545.24 83.6755 1548.89 79.8271 Q1552.53 76.0193 1552.53 68.282 L1552.53 64.5957 Q1550.22 68.6061 1546.62 70.5911 Q1543.01 72.576 1537.99 72.576 Q1529.65 72.576 1524.54 66.2161 Q1519.44 59.8562 1519.44 49.3643 Q1519.44 38.832 1524.54 32.472 Q1529.65 26.1121 1537.99 26.1121 Q1543.01 26.1121 1546.62 28.0971 Q1550.22 30.082 1552.53 34.0924 L1552.53 27.2059 L1559.99 27.2059 L1559.99 66.9452 Z" fill="#000000" fill-rule="nonzero" fill-opacity="1" /><path clip-path="url(#clip910)" d="M1601.63 34.1734 Q1600.37 33.4443 1598.88 33.1202 Q1597.42 32.7556 1595.64 32.7556 Q1589.32 32.7556 1585.91 36.8875 Q1582.55 40.9789 1582.55 48.6757 L1582.55 72.576 L1575.06 72.576 L1575.06 27.2059 L1582.55 27.2059 L1582.55 34.2544 Q1584.9 30.1225 1588.67 28.1376 Q1592.44 26.1121 1597.82 26.1121 Q1598.59 26.1121 1599.52 26.2337 Q1600.46 26.3147 1601.59 26.5172 L1601.63 34.1734 Z" fill="#000000" fill-rule="nonzero" fill-opacity="1" /><path clip-path="url(#clip910)" d="M1630.07 49.7694 Q1621.03 49.7694 1617.55 51.8354 Q1614.07 53.9013 1614.07 58.8839 Q1614.07 62.8538 1616.66 65.2034 Q1619.29 67.5124 1623.79 67.5124 Q1629.99 67.5124 1633.71 63.1374 Q1637.48 58.7219 1637.48 51.4303 L1637.48 49.7694 L1630.07 49.7694 M1644.93 46.6907 L1644.93 72.576 L1637.48 72.576 L1637.48 65.6895 Q1634.93 69.8214 1631.12 71.8063 Q1627.31 73.7508 1621.8 73.7508 Q1614.84 73.7508 1610.7 69.8619 Q1606.61 65.9325 1606.61 59.3701 Q1606.61 51.7138 1611.72 47.825 Q1616.86 43.9361 1627.03 43.9361 L1637.48 43.9361 L1637.48 43.2069 Q1637.48 38.0623 1634.08 35.2672 Q1630.72 32.4315 1624.6 32.4315 Q1620.71 32.4315 1617.02 33.3632 Q1613.34 34.295 1609.93 36.1584 L1609.93 29.2718 Q1614.03 27.692 1617.87 26.9223 Q1621.72 26.1121 1625.37 26.1121 Q1635.21 26.1121 1640.07 31.2163 Q1644.93 36.3204 1644.93 46.6907 Z" fill="#000000" fill-rule="nonzero" fill-opacity="1" /><path clip-path="url(#clip910)" d="M1660.29 9.54393 L1667.74 9.54393 L1667.74 72.576 L1660.29 72.576 L1660.29 9.54393 Z" fill="#000000" fill-rule="nonzero" fill-opacity="1" /><path clip-path="url(#clip910)" d="M1712.26 28.5427 L1712.26 35.5912 Q1709.1 33.9709 1705.7 33.1607 Q1702.3 32.3505 1698.65 32.3505 Q1693.1 32.3505 1690.3 34.0519 Q1687.55 35.7533 1687.55 39.156 Q1687.55 41.7486 1689.54 43.2475 Q1691.52 44.7058 1697.52 46.0426 L1700.07 46.6097 Q1708.01 48.3111 1711.33 51.4303 Q1714.69 54.509 1714.69 60.0587 Q1714.69 66.3781 1709.67 70.0644 Q1704.69 73.7508 1695.94 73.7508 Q1692.29 73.7508 1688.32 73.0216 Q1684.39 72.3329 1680.02 70.9151 L1680.02 63.2184 Q1684.15 65.3654 1688.16 66.4591 Q1692.17 67.5124 1696.1 67.5124 Q1701.36 67.5124 1704.2 65.73 Q1707.04 63.9071 1707.04 60.6258 Q1707.04 57.5877 1704.97 55.9673 Q1702.94 54.3469 1696.02 52.8481 L1693.42 52.2405 Q1686.5 50.7821 1683.42 47.7845 Q1680.34 44.7463 1680.34 39.4801 Q1680.34 33.0797 1684.88 29.5959 Q1689.41 26.1121 1697.76 26.1121 Q1701.89 26.1121 1705.54 26.7198 Q1709.18 27.3274 1712.26 28.5427 Z" fill="#000000" fill-rule="nonzero" fill-opacity="1" /><polyline clip-path="url(#clip912)" style="stroke:#000000; stroke-linecap:round; stroke-linejoin:round; stroke-width:4; stroke-opacity:1; fill:none" points="501.926,1293.21 2061.58,1293.21 "/>
<polyline clip-path="url(#clip912)" style="stroke:#000000; stroke-linecap:round; stroke-linejoin:round; stroke-width:4; stroke-opacity:1; fill:none" points="501.926,1033.27 2061.58,1033.27 "/>
<polyline clip-path="url(#clip912)" style="stroke:#000000; stroke-linecap:round; stroke-linejoin:round; stroke-width:4; stroke-opacity:1; fill:none" points="501.926,773.326 2061.58,773.326 "/>
<polyline clip-path="url(#clip912)" style="stroke:#000000; stroke-linecap:round; stroke-linejoin:round; stroke-width:4; stroke-opacity:1; fill:none" points="501.926,513.384 2061.58,513.384 "/>
<polyline clip-path="url(#clip912)" style="stroke:#000000; stroke-linecap:round; stroke-linejoin:round; stroke-width:4; stroke-opacity:1; fill:none" points="501.926,253.443 2061.58,253.443 "/>
<polyline clip-path="url(#clip912)" style="stroke:#000000; stroke-linecap:round; stroke-linejoin:round; stroke-width:4; stroke-opacity:1; fill:none" points="501.926,1293.21 501.926,253.443 "/>
<polyline clip-path="url(#clip912)" style="stroke:#000000; stroke-linecap:round; stroke-linejoin:round; stroke-width:4; stroke-opacity:1; fill:none" points="761.868,1293.21 761.868,253.443 "/>
<polyline clip-path="url(#clip912)" style="stroke:#000000; stroke-linecap:round; stroke-linejoin:round; stroke-width:4; stroke-opacity:1; fill:none" points="1021.81,1293.21 1021.81,253.443 "/>
<polyline clip-path="url(#clip912)" style="stroke:#000000; stroke-linecap:round; stroke-linejoin:round; stroke-width:4; stroke-opacity:1; fill:none" points="1281.75,1293.21 1281.75,253.443 "/>
<polyline clip-path="url(#clip912)" style="stroke:#000000; stroke-linecap:round; stroke-linejoin:round; stroke-width:4; stroke-opacity:1; fill:none" points="1541.69,1293.21 1541.69,253.443 "/>
<polyline clip-path="url(#clip912)" style="stroke:#000000; stroke-linecap:round; stroke-linejoin:round; stroke-width:4; stroke-opacity:1; fill:none" points="1801.63,1293.21 1801.63,253.443 "/>
<polyline clip-path="url(#clip912)" style="stroke:#000000; stroke-linecap:round; stroke-linejoin:round; stroke-width:4; stroke-opacity:1; fill:none" points="2061.58,1293.21 2061.58,253.443 "/>
<polyline clip-path="url(#clip912)" style="stroke:#0000ff; stroke-linecap:round; stroke-linejoin:round; stroke-width:4; stroke-opacity:1; fill:none" points="372.647,-24.5631 1015.26,1953.19 "/>
<polyline clip-path="url(#clip912)" style="stroke:#0000ff; stroke-linecap:round; stroke-linejoin:round; stroke-width:4; stroke-opacity:1; fill:none" points="607.766,-100.958 1250.38,1876.79 "/>
<polyline clip-path="url(#clip912)" style="stroke:#0000ff; stroke-linecap:round; stroke-linejoin:round; stroke-width:4; stroke-opacity:1; fill:none" points="842.886,-177.353 1485.5,1800.4 "/>
<polyline clip-path="url(#clip912)" style="stroke:#0000ff; stroke-linecap:round; stroke-linejoin:round; stroke-width:4; stroke-opacity:1; fill:none" points="1078.01,-253.748 1720.62,1724 "/>
<polyline clip-path="url(#clip912)" style="stroke:#0000ff; stroke-linecap:round; stroke-linejoin:round; stroke-width:4; stroke-opacity:1; fill:none" points="1313.12,-330.143 1955.74,1647.61 "/>
<polyline clip-path="url(#clip912)" style="stroke:#0000ff; stroke-linecap:round; stroke-linejoin:round; stroke-width:4; stroke-opacity:1; fill:none" points="1548.24,-406.538 2190.85,1571.22 "/>
</svg>
